<svg width="58" height="63" viewBox="0 0 58 63" fill="none" xmlns="http://www.w3.org/2000/svg">
<g clip-path="url(#clip0_2876_3632)">
<path d="M16.8379 56.5294L28.5312 49.9021V63.0004L16.8379 56.5294Z" fill="#DDE6EB"/>
<path d="M39.2919 37.3549L28.627 43.6491V31.614L39.2919 37.3549Z" fill="#1E4486"/>
<path d="M28.5312 49.9018L40.2252 43.3635V56.4612L28.5312 62.9796V49.9018Z" fill="#FBFBFB"/>
<path d="M0 28.2532V16.1479L10.6644 21.9796C10.6084 25.9525 10.5526 29.9261 10.4971 33.9006L0 28.2532Z" fill="#0E6CB6"/>
<path d="M10.6644 21.9797L0 16.1481L29.1138 0L39.6417 5.74833L10.6644 21.9797Z" fill="#22AAE1"/>
<path d="M0 33.9106L23.3752 46.6673L11.5062 53.1696L0.0929957 46.7192C0.0623996 42.45 0.0314013 38.1805 0 33.9106Z" fill="#6D81FF"/>
<path d="M57.8117 28.6954L33.3809 15.4482L45.1823 9.07935L57.8117 15.9713V28.6954Z" fill="#845BFF"/>
<path d="M45.7437 40.889L16.5586 25.0723C20.4234 22.8649 24.2894 20.656 28.1565 18.4456L57.905 34.969C57.9356 38.8856 57.9666 42.8023 57.998 46.7189L45.7437 53.6131V40.889Z" fill="#109AD7"/>
<path d="M16.6498 37.1781L28.6239 43.628V31.6111L16.5586 25.0723C16.5884 29.1075 16.6188 33.1428 16.6498 37.1781Z" fill="#1C97D8"/>
</g>
<defs>
<clipPath id="clip0_2876_3632">
<rect width="58" height="63" fill="white"/>
</clipPath>
</defs>
</svg>
